HIERARCHY
ROOT ui
{
	 OFFSET 0 0 0
	 CHANNELS 3 XPosition YPosition Z Position
	 EndSite
	 {
	 OFFSET 0 -1 0
	 }
}
ROOT li
{
	 OFFSET 0 0 0
	 CHANNELS 3 XPosition YPosition Z Position
	 EndSite
	 {
	 OFFSET 0 -1 0
	 }
}
ROOT ul
{
	 OFFSET 0 0 0
	 CHANNELS 3 XPosition YPosition Z Position
	 EndSite
	 {
	 OFFSET 0 -1 0
	 }
}
ROOT ll
{
	 OFFSET 0 0 0
	 CHANNELS 3 XPosition YPosition Z Position
	 EndSite
	 {
	 OFFSET 0 -1 0
	 }
}
ROOT tt
{
	 OFFSET 0 0 0
	 CHANNELS 3 XPosition YPosition Z Position
	 EndSite
	 {
	 OFFSET 0 -1 0
	 }
}
ROOT tb
{
	 OFFSET 0 0 0
	 CHANNELS 3 XPosition YPosition Z Position
	 EndSite
	 {
	 OFFSET 0 -1 0
	 }
}
ROOT td
{
	 OFFSET 0 0 0
	 CHANNELS 3 XPosition YPosition Z Position
	 EndSite
	 {
	 OFFSET 0 -1 0
	 }
}
ROOT v
{
	 OFFSET 0 0 0
	 CHANNELS 3 XPosition YPosition Z Position
	 EndSite
	 {
	 OFFSET 0 -1 0
	 }
}
ROOT bn
{
	 OFFSET 0 0 0
	 CHANNELS 3 XPosition YPosition Z Position
	 EndSite
	 {
	 OFFSET 0 -1 0
	 }
}
MOTION
Frames: 18
Frame Time: 0.002
-0.004256050109863282	0.0018559449911117554	0		0.4242718505859375	-2.356257568359375	0		-1.0294385986328125	-0.03315480422973633	0		-0.7484806518554687	-2.302549072265625	0		1.56208740234375	-0.5477741088867187	0		3.14136865234375	0.12254730224609375	0		4.46768896484375	0.24106857299804688	0		5.60118359375	0.07857461547851563	0		-0.299823486328125	5.84436376953125	0		
0.03478359222412109	-0.004240429878234863	0		0.4592720947265625	-2.349353271484375	0		-1.0223362426757812	-0.026049280166625978	0		-0.8184571533203125	-2.291077880859375	0		1.5732015380859374	-0.5338018188476562	0		3.151423828125	0.11845553588867187	0		4.45881005859375	0.2480206298828125	0		5.60924658203125	0.07638489532470703	0		-0.2854490356445312	5.85440283203125	0		
0.006833012104034424	-0.003996609926223755	0		0.48118655395507814	-2.356375244140625	0		-0.9523087768554688	-0.03024591827392578	0		-0.7475507202148437	-2.3002880859375	0		1.5732330322265624	-0.5327620849609375	0		3.168581787109375	0.13934373474121095	0		4.47390576171875	0.25387188720703124	0		5.612333984375	0.08323816680908203	0		-0.28615097045898436	5.8545263671875	0		
-0.007096675872802735	0.0021879289150238037	0		0.4781161804199219	-2.3592646484375	0		-1.03228369140625	-0.03269267272949219	0		-0.7635886840820313	-2.297062744140625	0		1.572251708984375	-0.5327060546875	0		3.135568359375	0.127494873046875	0		4.4648974609375	0.24085824584960938	0		5.59835302734375	0.07819499969482421	0		-0.2868726501464844	5.854658203125	0		
-0.008056031227111817	0.0023136770725250243	0		0.47505615234375	-2.3611474609375	0		-0.9582453002929687	-0.032905010223388674	0		-0.7546766357421875	-2.304958251953125	0		1.547257080078125	-0.5355201416015625	0		3.14658349609375	0.12143968963623047	0		4.463953125	0.24082000732421874	0		5.587396484375	0.07815592956542969	0		-0.28760739135742186	5.85479443359375	0		
9.484009742736817E-4	-0.006608455181121826	0		0.45800665283203124	-2.363955322265625	0		-1.0341954345703126	-0.032362422943115234	0		-0.7557091064453125	-2.304802978515625	0		1.5602471923828125	-0.5435182495117188	0		3.141607421875	0.11547548675537109	0		4.46301708984375	0.24079544067382813	0		5.58644921875	0.07808395385742188	0		-0.3033980712890625	5.84500927734375	0		
-0.006920427799224854	0.005555081844329834	0		0.4770391845703125	-2.355944580078125	0		-0.9561121215820313	-0.029603281021118165	0		-0.7516897583007812	-2.299675537109375	0		1.5623145751953125	-0.5404571533203125	0		3.147752685546875	0.1294638214111328	0		4.45910009765625	0.24079791259765626	0		5.58551708984375	0.07702740478515625	0		-0.2890840759277344	5.85507080078125	0		
-0.007818642139434815	0.005680375099182129	0		0.44908050537109373	-2.3536953125	0		-1.0320052490234375	-0.028064577102661133	0		-0.7576829223632813	-2.304502197265625	0		1.5734100341796875	-0.538440673828125	0		3.132781494140625	0.11456619262695313	0		4.47021337890625	0.24073321533203124	0		5.59361572265625	0.07593820190429687	0		-0.2898062133789063	5.85520458984375	0		
0.024259536743164063	-0.007370499134063721	0		0.47313623046875	-2.35871728515625	0		-0.961882080078125	-0.03228387451171875	0		-0.7606100463867187	-2.306352294921875	0		1.5525465087890624	-0.5372611083984375	0		3.17199658203125	0.12739387512207032	0		4.46936962890625	0.24073663330078124	0		5.5837685546875	0.07695220947265625	0		-0.2905022277832031	5.8553310546875	0		
-0.01248670196533203	0.0029246599674224855	0		0.4452971496582031	-2.3554794921875	0		-0.9626812133789062	-0.032151481628417966	0		-0.7734325561523437	-2.30016259765625	0		1.5946776123046875	-0.5484118041992188	0		3.155139404296875	0.11551012420654297	0		4.46454443359375	0.2337642822265625	0		5.57397705078125	0.07797412109375	0		-0.3062117004394531	5.845525390625	0		
0.022729516983032227	-0.0071659889221191405	0		0.4814587097167969	-2.3665849609375	0		-1.0384122314453126	-0.031644769668579105	0		-0.7922794799804688	-2.312956298828125	0		1.5559613037109374	-0.5431512451171875	0		3.13741064453125	0.11562872314453125	0		4.47182080078125	0.23372955322265626	0		5.58315380859375	0.059901771545410154	0		-0.3068204650878906	5.8456279296875	0		
0.00809014129638672	-0.004012853145599365	0		0.43082452392578124	-2.354252197265625	0		-1.031031494140625	-0.024587535858154298	0		-0.7509661865234375	-2.3110810546875	0		1.59031689453125	-0.539281494140625	0		3.152647705078125	0.09456971740722656	0		4.47613623046875	0.22670745849609375	0		5.58654150390625	0.0678611831665039	0		-0.29231878662109373	5.8556357421875	0		
0.06856333923339844	0.004730214118957519	0		0.47221066284179686	-2.355415771484375	0		-1.0356204833984375	-0.027488492965698243	0		-0.7635472412109375	-2.3059443359375	0		1.55471533203125	-0.54305908203125	0		3.1562802734375	0.1335640563964844	0		4.47960009765625	0.232685546875	0		5.5810166015625	0.07686685943603516	0		-0.2928047180175781	5.85570263671875	0		
-0.028968193054199218	-0.00271792197227478	0		0.44269223022460935	-2.3552255859375	0		-0.9651337280273438	-0.031805286407470705	0		-0.76808642578125	-2.309870849609375	0		1.5692440185546874	-0.53811279296875	0		3.13662841796875	0.10267034149169922	0		4.47808203125	0.2266837158203125	0		5.5814375	0.05983928680419922	0		-0.29322634887695315	5.85574951171875	0		
0.020595420837402345	-0.006957415103912353	0		0.46924053955078127	-2.358348388671875	0		-1.040547607421875	-0.03137940216064453	0		-0.7705320434570313	-2.311830322265625	0		1.553798583984375	-0.5430247802734375	0		3.152282958984375	0.11558123016357422	0		4.47063427734375	0.21970565795898436	0		5.57607080078125	0.06883891296386718	0		-0.27461550903320314	5.85067529296875	0		
-0.04269758224487305	0.0033756279945373535	0		0.4418957824707031	-2.35520751953125	0		-1.040894287109375	-0.03137129592895508	0		-0.7609349365234375	-2.31987646484375	0		1.55344873046875	-0.5430325317382813	0		3.15286865234375	0.10255857849121094	0		4.4702900390625	0.21968124389648438	0		5.56572998046875	0.06985912322998047	0		-0.30895199584960936	5.84585791015625	0		
0.028958124160766603	-0.008023015975952149	0		0.4525700378417969	-2.36128662109375	0		-1.0371588134765626	-0.027408348083496094	0		-0.7972019653320312	-2.314703857421875	0		1.5561771240234374	-0.5400738525390625	0		3.1596572265625	0.11649020385742187	0		4.47404296875	0.22662466430664063	0		5.57443408203125	0.06777157592773438	0		-0.2941634521484375	5.85576025390625	0		
0.0017337169647216797	-0.0069214701652526855	0		0.47036761474609373	-2.3554228515625	0		-0.9623951416015625	-0.02884245491027832	0		-0.6864898681640625	-2.325327880859375	0		1.5729249267578125	-0.5442064208984375	0		3.152353759765625	0.10248163604736328	0		4.4697763671875	0.21959841918945314	0		5.56520458984375	0.06776953887939453	0		-0.29438424682617187	5.8557197265625	0		
